<svg width="426" height="342" viewBox="0 0 426 342" fill="none" xmlns="http://www.w3.org/2000/svg">
<g clip-path="url(#clip0_8_124)">
<path d="M171 213.087C171 213.087 243.804 195.134 244.022 195.662C244.24 196.191 260.809 219.595 254.614 243.986L174.643 265.651L171 213.1V213.087Z" fill="#8CA64B"/>
<path d="M156.889 56.4358C160.471 58.2751 160.36 63.1014 160.623 66.9043C161.162 87.2743 161.992 128.609 161.107 147.403C160.692 154.04 164.122 156.239 169.031 159.862C173.041 162.849 177.536 166.348 180.979 170.151C192.748 182.874 192.913 201.501 192.277 217.833C191.531 229.781 191.074 242.711 188.405 254.106C186.801 260.993 183.952 265.018 178.863 269.097C159.932 283.77 103.025 336.071 69.7254 341.74C63.8066 342.377 58.4272 339.777 53.8498 336.236C43.8515 329.225 34.4893 314.553 30.8661 302.065C12.9715 248.312 8.62924 204.806 32.4565 152.132C37.2136 140.557 43.6717 131.803 51.1117 121.529C59.7824 108.917 70.4307 95.1983 82.3651 85.9883C97.8396 73.805 115.72 64.5534 134.998 59.1878C142.341 57.4868 150.5 54.4583 156.792 56.3805L156.903 56.4358H156.889Z" fill="#E09C2D"/>
<path d="M79.862 318.674C81.7151 328.188 71.4126 323.071 67.1947 318.411C62.3131 313.612 58.7176 308.012 55.4125 302.452C42.8144 279.801 36.4807 253.609 34.8212 228.606C34.5723 214.417 37.4764 199.745 40.0209 185.584C41.39 179.333 42.2335 170.635 44.5983 165.034C44.7781 164.896 44.9025 165.09 44.9993 165.601C45.1791 166.846 45.1514 168.063 45.1376 169.556C44.6813 185.017 43.492 200.865 44.0313 216.215C44.3909 230.21 47.7789 243.693 51.6234 257.232C54.4998 267.465 57.2794 277.699 62.1195 287.683C66.766 298.248 76.2527 307.707 79.8067 318.452L79.862 318.688V318.674Z" fill="#7A5300"/>
<path d="M140.792 155.52C133.975 151.302 129.134 139.188 129.937 130.587C130.393 123.935 132.965 114.089 141.096 116.896C152.713 121.169 152.906 133.256 149.394 144.319C147.942 148.55 145.646 157.525 140.917 155.575L140.778 155.506L140.792 155.52Z" fill="#7A5300"/>
<path d="M169.515 173.332C173.539 176.9 179.098 176.803 182.666 172.779L168.091 159.849C164.523 163.873 165.491 169.764 169.515 173.332Z" fill="#7A5300"/>
<path d="M190.507 211.901C191.71 204.419 191.78 199.054 191.351 195.209C190.466 187.41 187.451 185.944 187.451 185.944C157.733 182.888 176.153 211.154 176.153 211.154L190.507 211.901Z" fill="#7A5300"/>
<path d="M170.027 160.623L173.677 163.444L178.186 167.344L182.321 171.7L182.957 172.516L182.666 172.779L168.091 159.849L168.616 159.572" fill="#7A5300"/>
<path d="M409.02 143.434C385.165 92.6953 332.56 39.8411 269.459 46.8939C262.945 48.2768 257.013 50.9043 251.758 54.5828C250.914 56.1731 250.237 58.0815 249.642 60.4324C246.724 70.403 244.857 80.7609 243.447 91.1464C241.676 107.147 239.713 123.174 242.133 138.939C244.124 151.814 252.422 163.237 255.478 175.849C256.93 181.919 256.861 187.99 256.183 195.541C255.132 210.227 252.657 227.43 255.16 242.283C257.69 256.319 273.511 261.436 285.265 266.981C299.177 273.73 315.537 279.856 329.836 284.226C348.118 289.522 365.293 296.299 384.668 298.968C403.558 301.678 420.678 289.066 425.131 272.485C428.616 244.73 426.846 181.684 409.034 143.42L409.02 143.434Z" fill="#E09C2D"/>
<path d="M271.257 48.097C270.496 47.5577 269.639 47.2396 268.726 47.046C261.521 48.6916 255.063 51.8861 249.448 56.339C249.227 56.7954 249.033 57.2241 249.379 56.3944C249.365 56.3944 249.352 56.422 249.338 56.4358C249.02 57.1273 248.674 57.7496 248.245 58.3027C247.858 59.8792 247.498 61.6632 247.084 63.6822C245.936 69.5871 244.829 76.7367 243.931 83.2363C241.856 98.5587 240.197 114.019 239.381 129.48C237.956 144.402 247.747 154.4 251.398 167.786C253.445 174.341 253.417 180.855 253.376 187.672C253.32 197.09 253.459 211.32 253.611 223.392C253.708 229.339 253.735 234.801 253.901 238.66C254.109 243.444 254.62 245.588 255.575 244.565C257.649 241.481 258.893 235.59 260.014 231.358C264.508 210.49 268.435 186.677 268.574 168.906C267.329 159.42 258.575 152.326 256.612 142.797C255.326 137.791 255.92 132.744 256.902 127.765C258.257 120.809 259.626 114.172 261.327 105.777C263.913 93.0687 266.707 79.4748 269.334 66.8075C270.095 63.129 270.814 59.7133 271.561 56.1454C272.349 52.3148 273.206 49.6597 271.27 48.097H271.257Z" fill="#7A5300"/>
<path d="M258.617 151.855C259.723 149.283 262.752 148.26 265.393 147.333C267.454 146.614 269.473 145.771 271.436 144.816C274.299 143.434 277.397 141.276 277.535 138.082C277.604 136.436 276.83 134.873 276.083 133.408C274.119 129.563 272.003 125.553 268.394 123.188C267.246 122.427 265.849 121.722 265.504 120.381C265.324 119.676 265.49 118.943 265.656 118.237L269.251 102.777C269.251 102.777 298.721 112.858 297.31 144.955C297.31 144.955 272.958 159.503 268.588 187.811C268.09 191.005 269.694 181.449 270.261 178.269C270.717 175.696 271.16 173.124 271.45 170.524C271.616 169.003 271.727 167.441 271.229 166.002C270.856 164.965 270.192 164.066 269.5 163.195C266.223 159.046 262.461 155.285 258.313 152.021" fill="#7A5300"/>
<path d="M281.697 45.912C281.255 45.8567 280.826 45.7737 280.439 45.6354C280.162 45.6769 279.886 45.7322 279.582 45.7322C273.082 45.8429 267.025 47.0875 261.48 49.3001C259.737 51.817 258.769 55.5093 257.428 60.9164C255.989 66.8628 254.51 74.0815 253.279 80.6365C250.416 96.1248 247.982 111.765 246.364 127.447C244.18 142.549 253.362 153.211 256.294 167.012C257.981 173.774 257.621 180.412 257.22 187.34C256.681 196.924 256.072 211.403 255.602 223.683C255.381 229.74 255.132 235.299 255.104 239.227C255.063 244.094 255.464 246.307 256.46 245.311C258.686 242.283 260.207 236.35 261.549 232.105C267.08 211.112 272.225 187.078 273.276 169.017C272.529 159.309 264.218 151.662 262.766 141.857C261.756 136.699 262.6 131.61 263.83 126.576C265.545 119.565 267.232 112.885 269.362 104.436C272.584 91.6443 276.055 77.9536 279.333 65.2034C280.287 61.511 284.062 47.9587 282.223 46.2716C282.057 46.1333 281.877 46.0227 281.697 45.912Z" fill="#582400"/>
<path d="M0.608452 262.473C-0.248941 262.639 -0.0138491 263.427 0.207414 264.077C5.60069 277.505 17.2861 307.306 18.1574 316.807C18.3648 318.992 18.6967 320.748 21.4486 320.624C26.9526 320.693 41.2931 315.631 49.8671 311.123C53.8083 309.201 56.505 306.421 60.2941 305.177C61.7738 304.651 63.4194 304.236 64.9406 303.849C65.6597 303.6 66.6554 303.434 67.3745 303.089C67.9 302.84 68.2734 302.48 68.3149 301.927C67.8585 300.295 66.5448 298.788 65.0236 295.884C59.1601 285.54 49.9086 267.534 50.3926 257.882C50.2681 256.457 51.084 254.466 50.4479 253.443C50.1713 253.249 49.5767 253.36 48.6501 253.622C45.0131 254.701 40.6847 255.89 36.3562 257.011C25.6111 259.859 11.2014 262.915 0.719084 262.445H0.622281L0.608452 262.473Z" fill="#8CA64B"/>
<path d="M66.6278 303.379C67.582 303.116 70.5275 301.719 70.5275 301.719C70.5275 301.719 59.3123 283.438 58.8698 280.202L55.2881 269.885L51.3745 256.347L50.5033 253.221L49.7703 253.374L53.1307 300.184L66.6278 303.379Z" fill="#8CA64B"/>
<path d="M57.1826 283.548C59.8516 283.548 59.8516 279.4 57.1826 279.4C54.5136 279.4 54.5136 283.548 57.1826 283.548Z" fill="#8CA64B"/>
<path d="M57.2379 283.852C59.9069 283.852 59.9069 279.704 57.2379 279.704C54.569 279.704 54.569 283.852 57.2379 283.852Z" fill="#8CA64B"/>
<path d="M59.5335 284.475L58.8698 280.202L60.6537 284.475H59.5335Z" fill="#8CA64B"/>
<path d="M209.589 28.0646L206.174 41.6999C205.579 43.0967 203.754 45.8901 205.233 45.572L222.99 39.5011C224.469 39.1831 227.622 37.1087 226.502 36.0854L216.933 29.4475C215.992 28.5901 210.087 26.8892 209.576 28.0508L209.589 28.0646Z" fill="#E09C2D"/>
</g>
<path d="M200.526 1.88073L203.153 7.7442C203.333 8.40799 203.471 9.92917 203.914 9.40367L208.574 2.21263C209.017 1.6733 209.556 0.0414868 208.865 0L203.554 0.318065C202.974 0.276579 200.374 1.32758 200.526 1.89456V1.88073Z" fill="#E09C2D"/>
<path d="M163.287 24.6817C166.454 28.6368 171.944 32.0111 176.328 34.4449C178.997 35.6619 183.464 38.4692 182.91 34.929C181.846 28.2081 181.403 9.15184 178.734 6.0265C172.718 -0.99859 166.081 0.688539 161.047 6.16479C154.423 11.6687 158.793 18.5832 163.107 24.4466L163.301 24.6817H163.287Z" fill="#E09C2D"/>
<defs>
<clipPath id="clip0_8_124">
<rect width="426" height="314.193" fill="white" transform="translate(0 27.6578)"/>
</clipPath>
</defs>
</svg>
