<svg width="290" height="290" viewBox="0 0 290 290" fill="none" xmlns="http://www.w3.org/2000/svg">
<path d="M257.861 176.728C250.427 182.173 241.524 184.589 232.716 182.268C219.93 178.859 218.888 165.599 220.262 154.471L222.298 138.181C223.103 131.599 222.961 125.016 221.446 118.766C217.941 104.18 203.545 96.8403 189.481 101.67C182.946 103.944 177.453 108.205 172.623 113.32C163.057 100.629 150.224 95.7985 135.307 103.517C129.814 94.662 124.795 90.2107 113.477 91.4419C98.7496 93.0993 87.3845 107.969 79.7604 119.997C78.7186 113.462 77.8188 107.211 74.2672 101.813C69.2476 94.1411 60.4397 90.3527 51.3949 91.2998C44.3864 92.0575 38.3724 95.3723 33.6369 100.439C27.0073 107.448 24.4028 116.492 24.3554 126.105L24.2133 150.493L23.9766 191.123L37.2832 191.266L37.6147 166.831L37.9935 122.933C38.0409 116.777 41.261 111.141 45.8544 107.495C50.6846 103.659 58.7349 103.186 62.4286 108.584C71.1892 121.417 63.5651 147.084 59.3505 160.816C58.4034 163.942 57.3143 167.304 58.3561 170.524C59.5873 174.313 64.9857 175.638 68.0638 173.271C70.6683 171.282 72.4677 168.488 73.5569 165.363C79.0027 149.735 97.4237 104.464 117.028 104.606C119.87 104.606 121.859 106.501 122.143 109.2C122.9 116.256 121.906 122.885 119.491 129.657C112.246 150.02 102.727 168.867 91.9779 188.093L103.864 194.344C112.104 179.948 119.444 165.599 125.931 150.446C129.577 141.969 132.371 133.682 134.408 124.827C135.781 118.955 139.664 114.977 145.015 113.651C153.87 111.52 159.695 117.108 163.768 124.685C154.012 137.707 146.246 154.613 152.876 170.429C155.954 177.769 163.01 183.026 171.392 182.079C181.052 180.99 188.108 173.318 189.481 164.131C191.233 152.245 184.462 136.429 179.773 125.727C184.604 119.428 191.754 112.751 199.994 113.699C209.181 114.788 209.702 128 208.897 134.913L206.245 157.975C204.35 174.455 212.969 191.739 230.538 195.527C243.039 198.227 255.967 195.196 266.29 186.909L257.814 176.586L257.861 176.728ZM173.002 167.067C170.587 169.104 167.556 168.914 165.993 166.404C160.832 158.259 165.33 146.231 170.35 138.276C172.765 145.142 180.152 161.101 173.002 167.067Z" fill="#091F5B"/>
<path d="M83.5336 88.6953L81.6394 89.5477C81.3553 89.6424 81.1658 89.6897 81.0711 89.6424C80.9764 89.6424 80.787 89.453 80.6449 89.2162C80.4555 88.9794 80.2661 88.6006 80.0293 88.1744C79.7926 87.7482 79.5558 87.2747 79.3664 86.8485C79.1296 86.2802 78.8928 85.7593 78.656 85.2858C77.851 83.581 77.3775 82.5865 77.2828 82.3024C77.0933 81.8762 76.9039 81.4027 76.7145 80.9291C76.1936 79.6506 75.9095 78.9402 75.8148 78.7508C75.578 78.2299 75.3886 77.7564 75.2465 77.3302C75.1518 77.0934 75.0571 76.7619 74.9624 76.2884V76.1937C74.773 75.5781 74.8203 75.2466 75.0097 75.1519L76.9039 74.2995C77.188 74.1574 77.5195 74.1574 77.8037 74.2521C78.0878 74.3468 78.514 74.5836 79.0822 75.0098C79.7452 75.4833 80.4082 76.0516 81.0711 76.7146C81.7341 77.3775 82.0656 77.709 82.1603 77.6617C82.1603 77.6617 82.2076 77.1408 82.2076 76.1937C82.2076 75.7201 82.2076 75.2466 82.2076 74.8204C82.2076 74.3942 82.3024 73.9206 82.3971 73.4944C82.4918 72.7841 82.6338 72.3106 82.7759 72.0265C82.918 71.7423 83.1074 71.5055 83.3442 71.4108L84.9542 70.7005C85.2383 70.5585 85.5698 70.7005 85.854 71.1741L85.9487 71.3161C86.2328 71.7897 86.5169 72.2159 86.7537 72.6421C86.9905 73.0683 87.1799 73.4944 87.3693 73.8733C87.5114 74.2521 87.8428 74.8677 88.2217 75.7201C88.6479 76.5725 88.9794 77.2828 89.2161 77.8037C89.4056 78.2773 89.6897 78.8929 90.0212 79.6979C90.3527 80.5029 90.5421 81.0238 90.6841 81.2606C90.9209 81.7815 91.1103 82.2551 91.2524 82.7286C91.3471 83.0127 91.4418 83.3916 91.5839 83.9598V84.1493C91.8206 84.7175 91.7259 85.049 91.3944 85.2384L89.3108 86.1855C89.3108 86.1855 89.1214 86.2329 89.0741 86.2329C89.0267 86.2329 88.9794 86.2329 88.9794 86.1381L88.8373 85.3331C88.7899 84.8596 88.6479 84.3387 88.5058 83.6757C88.3638 83.0127 88.127 82.2551 87.8428 81.45C87.5587 80.5977 87.0852 79.5085 86.4696 78.0878L86.2801 77.6143C85.9013 76.7619 85.5698 76.1463 85.3331 75.8148C85.0963 75.4833 84.9069 75.3413 84.7174 75.3886C84.528 75.4833 84.4807 75.9095 84.4333 76.7146C84.4333 77.5196 84.528 78.4667 84.7174 79.6506C84.8122 80.2662 85.0016 81.0712 85.2383 82.0656C85.5225 83.2969 85.4751 83.9598 85.0963 84.1493C84.6701 84.3387 84.0071 83.9125 83.2494 82.8233C82.6812 82.0183 82.255 81.45 81.8762 81.0238C81.0238 79.982 80.2661 79.2244 79.6978 78.7035C79.1296 78.1826 78.7034 77.9931 78.514 78.0878C78.3719 78.1352 78.3719 78.4193 78.514 78.8455C78.5613 79.0349 78.7034 79.3664 78.8455 79.7453C78.9875 80.1241 79.1769 80.5976 79.4137 81.1185C80.5502 83.6283 81.8762 85.854 83.4862 87.7956L83.8177 88.2691C83.8177 88.2691 83.8177 88.4112 83.8177 88.4585C83.8177 88.4585 83.723 88.5532 83.6283 88.6006L83.5336 88.6953Z" fill="#646464"/>
<path d="M97.1714 83.2022L94.7563 83.9598C94.4722 84.0545 94.0933 83.7704 93.7145 83.1074C93.5251 82.776 93.3357 82.3498 93.1462 81.8762C92.9568 81.4027 92.7674 80.7871 92.5306 80.1241C92.1044 78.6561 91.8203 77.2355 91.8203 75.7675C91.8203 74.2995 91.915 72.8788 92.2939 71.5056C92.578 70.4164 92.9568 69.422 93.4304 68.6169C93.9039 67.7645 94.3301 67.291 94.709 67.1963C94.9457 67.1016 95.3246 67.1963 95.8928 67.4331C96.4137 67.6698 97.0293 68.0487 97.5976 68.5222C98.7341 69.422 99.7285 70.5585 100.486 71.8844C101.291 73.2103 102.002 74.8677 102.617 76.904C102.854 77.709 103.043 78.514 103.233 79.2717C103.375 80.0294 103.47 80.5503 103.47 80.8818C103.47 81.0712 103.47 81.2606 103.375 81.3553C103.28 81.45 103.138 81.5447 102.901 81.5921L100.865 82.2077C100.865 82.2077 100.628 82.2551 100.534 82.2551C100.439 82.2551 100.392 82.2551 100.392 82.1604C100.392 82.113 100.392 81.8762 100.392 81.5447C100.392 80.7397 100.392 79.982 100.392 79.3191C100.392 78.6561 100.202 78.0405 100.06 77.5196C99.918 77.0461 99.7285 76.7619 99.5391 76.6199C99.3024 76.4778 99.0182 76.4778 98.592 76.6199C98.1658 76.7619 97.7397 76.9513 97.2661 77.1881C96.7926 77.4249 96.4137 77.709 96.0822 77.9931C95.7508 78.2773 95.514 78.5614 95.4193 78.8455C95.3246 79.1297 95.3246 79.5085 95.4193 79.9347C95.6087 80.5977 96.0349 81.308 96.6031 81.9709C97.1714 82.6339 97.4555 83.0127 97.4555 83.0601C97.4555 83.1075 97.4555 83.1548 97.4555 83.2022C97.4555 83.2022 97.3608 83.2495 97.2188 83.2969L97.1714 83.2022ZM94.2354 75.0572C94.2354 75.0572 94.3775 75.3886 94.4248 75.436C94.5195 75.4834 94.6142 75.436 94.8037 75.436L95.6087 74.9624C96.1769 74.631 96.7452 74.3942 97.4082 74.2048C97.9764 74.0154 98.3079 73.8733 98.4026 73.7786C98.5447 73.6365 98.5447 73.4945 98.4973 73.2103C98.4026 72.9262 98.2606 72.6421 98.0238 72.3106C97.787 71.9791 97.5502 71.6476 97.2188 71.3161C96.7452 70.8426 96.4137 70.5585 96.1769 70.4164C95.9402 70.2743 95.7508 70.227 95.6087 70.2743C95.4193 70.3217 95.2299 70.5111 95.0404 70.8899C94.851 71.2214 94.7089 71.695 94.5195 72.3579C94.3301 73.0683 94.2354 73.6365 94.188 74.0627C94.1407 74.4889 94.188 74.8204 94.188 75.0572H94.2354Z" fill="#646464"/>
<path d="M108.963 80.2188L106.548 80.5977C106.548 80.5977 106.216 80.5977 106.122 80.5503C106.122 80.5503 106.027 80.4556 105.98 80.3609C105.98 80.2662 105.885 80.1715 105.885 80.0294C105.885 79.7926 105.695 79.0823 105.411 77.9458C105.269 77.4249 105.222 76.9513 105.127 76.6199C105.08 76.241 104.985 75.6254 104.796 74.8204C104.654 74.0154 104.559 73.3997 104.464 73.0209C104.37 72.4053 104.275 71.7897 104.18 71.1741C103.943 69.5167 103.849 68.6169 103.849 68.5222C103.754 67.954 103.707 67.3857 103.659 66.8174C103.659 66.4386 103.659 66.0124 103.659 65.5389C103.659 65.3021 103.659 65.16 103.754 65.0653C103.801 64.9706 103.943 64.9233 104.085 64.8759L109.342 64.0235C110.336 63.8815 111.189 64.0235 111.852 64.4971C112.515 64.9706 112.941 65.7283 113.083 66.7701C113.083 67.0542 113.13 67.291 113.13 67.5278C113.13 67.7645 113.13 68.0013 113.083 68.2381C113.083 68.4749 112.988 68.759 112.893 68.9958C112.799 69.2325 112.704 69.5167 112.562 69.8008C112.372 70.227 112.088 70.6532 111.804 71.0794C111.52 71.5056 111.378 71.7423 111.378 71.7897C111.378 71.8844 111.709 72.2159 112.325 72.7841C112.941 73.3524 113.462 73.9206 113.888 74.5836C114.314 75.2466 114.74 75.9569 115.072 76.7146C115.214 77.0934 115.356 77.4722 115.498 77.8037C115.593 78.1826 115.687 78.514 115.735 78.7982C115.735 78.8455 115.735 78.9402 115.593 78.9876C115.498 79.035 115.356 79.0823 115.214 79.1297L113.177 79.4611C112.941 79.4611 112.704 79.177 112.467 78.5614C112.23 77.8984 112.041 77.3775 111.804 76.904C111.331 75.8622 110.904 75.0572 110.431 74.4889C109.957 73.9206 109.579 73.6839 109.247 73.7312C108.916 73.7786 108.584 74.0154 108.253 74.4889C107.968 74.9151 107.826 75.3886 107.921 75.8622C108.016 76.5252 108.253 77.3302 108.631 78.2773C109.01 79.2244 109.2 79.7926 109.2 79.8873C109.2 79.9347 109.2 79.982 109.152 80.0294C109.152 80.0294 109.058 80.0294 109.058 80.0768C109.058 80.0768 108.963 80.0768 108.821 80.0768L108.963 80.2188ZM106.785 69.4219L106.927 70.8426V71.032C107.021 71.3161 107.069 71.5529 107.163 71.695C107.258 71.837 107.353 71.8844 107.495 71.8844C107.637 71.8844 107.921 71.695 108.3 71.4108C108.679 71.1267 109.058 70.7479 109.484 70.3217C110.005 69.7534 110.336 69.3272 110.478 68.9484C110.62 68.6169 110.715 68.2381 110.62 67.8592C110.526 67.3857 110.336 67.0069 109.91 66.8174C109.531 66.628 109.01 66.5807 108.347 66.6754C107.684 66.7701 107.211 67.0542 106.974 67.4804C106.832 67.6698 106.785 67.954 106.737 68.3328C106.737 68.6643 106.737 69.0431 106.737 69.5167L106.785 69.4219Z" fill="#646464"/>
<path d="M120.233 79.1296H118.244C118.244 79.1296 117.866 79.177 117.771 79.1296C117.676 79.1296 117.629 78.9876 117.534 78.7982C117.439 78.4667 117.345 78.1352 117.297 77.8037C117.25 77.4722 117.203 77.1408 117.203 76.8093C117.203 76.5251 117.203 76.1463 117.155 75.6728C117.061 74.5836 117.013 73.7786 117.013 73.305C117.013 72.7368 117.013 72.1685 117.013 71.6476C117.013 71.1267 117.013 70.5111 117.013 69.8955C117.013 69.2799 117.013 68.8063 117.013 68.4275C117.013 67.7645 117.013 67.0069 117.061 66.2492C117.061 65.9651 117.155 65.3494 117.25 64.3076C117.25 63.8814 117.345 63.5973 117.392 63.5026C117.487 63.4079 117.629 63.3605 117.866 63.3132H119.854C119.854 63.3132 120.139 63.2658 120.186 63.3132C120.233 63.3605 120.281 63.4079 120.281 63.4553C120.281 63.5973 120.281 63.8814 120.139 64.355C119.76 66.628 119.618 68.8537 119.712 70.8899C119.712 72.0738 119.854 73.2103 119.997 74.3942C120.139 75.5307 120.328 76.7146 120.612 77.9458C120.612 78.0405 120.659 78.1826 120.707 78.372C120.707 78.5614 120.754 78.7035 120.802 78.7982C120.802 78.8929 120.802 78.9876 120.659 79.0349C120.565 79.0823 120.47 79.1296 120.281 79.1296H120.233Z" fill="#646464"/>
<path d="M125.395 79.2717L122.885 78.9876C122.554 78.9876 122.364 78.5614 122.27 77.8037C122.27 77.4249 122.222 76.9513 122.27 76.4304C122.27 75.9095 122.317 75.2939 122.412 74.5836C122.601 73.0683 122.933 71.6476 123.501 70.2743C124.022 68.9011 124.732 67.6698 125.632 66.5333C126.342 65.6336 127.052 64.8759 127.857 64.3076C128.662 63.7394 129.231 63.4553 129.61 63.5026C129.846 63.5026 130.178 63.7867 130.604 64.2129C130.983 64.6391 131.409 65.2074 131.741 65.9177C132.403 67.1963 132.877 68.6169 133.066 70.1323C133.256 71.6476 133.256 73.4945 133.066 75.5781C132.972 76.4304 132.83 77.2355 132.688 77.9931C132.546 78.7508 132.403 79.2717 132.261 79.5558C132.167 79.7453 132.119 79.8873 131.977 79.9347C131.883 79.982 131.693 79.982 131.456 79.9347L129.325 79.6979C129.325 79.6979 129.089 79.6979 128.994 79.6032C128.899 79.5085 128.899 79.5085 128.899 79.4611C128.899 79.4138 128.994 79.2244 129.136 78.8929C129.515 78.1352 129.799 77.4722 129.988 76.8093C130.178 76.1937 130.32 75.5781 130.415 75.0572C130.462 74.5836 130.415 74.2048 130.273 74.0154C130.13 73.8259 129.846 73.6839 129.373 73.6365C128.947 73.5892 128.473 73.5892 127.952 73.6365C127.431 73.6365 126.958 73.7786 126.532 73.8733C126.105 73.968 125.774 74.1574 125.584 74.3942C125.348 74.631 125.253 74.9625 125.206 75.3886C125.111 76.099 125.206 76.8566 125.442 77.7564C125.679 78.6088 125.821 79.035 125.821 79.0823C125.821 79.1297 125.821 79.177 125.726 79.2244C125.726 79.2244 125.584 79.2244 125.49 79.2244L125.395 79.2717ZM125.963 70.6058C125.963 70.6058 125.963 70.9373 125.963 71.032C126.011 71.1267 126.153 71.1741 126.295 71.1741L127.242 71.0794C127.905 70.9847 128.52 70.9847 129.183 71.0794C129.752 71.1267 130.13 71.1267 130.273 71.0794C130.462 71.032 130.557 70.8426 130.557 70.6058C130.557 70.3217 130.557 69.9902 130.509 69.6114C130.415 69.2325 130.32 68.8063 130.13 68.3801C129.894 67.7645 129.704 67.3857 129.562 67.1489C129.42 66.9122 129.231 66.8174 129.089 66.7701C128.899 66.7701 128.615 66.8648 128.331 67.1016C128.047 67.3383 127.668 67.7172 127.289 68.2381C126.863 68.8063 126.532 69.2799 126.295 69.6587C126.058 70.0376 125.963 70.369 125.916 70.6058H125.963Z" fill="#646464"/>
<path d="M136.334 81.2133L134.677 80.5977C134.677 80.5977 134.393 80.4082 134.345 80.2662C134.345 80.1241 134.345 79.8873 134.44 79.5085C134.582 79.035 134.677 78.6088 134.819 78.2299C134.913 77.8511 135.056 77.5196 135.15 77.1881C135.292 76.8093 135.482 76.241 135.766 75.436C136.05 74.631 136.287 73.968 136.429 73.4945C136.713 72.7368 137.044 71.837 137.423 70.8426C137.802 69.8481 138.039 69.2799 138.086 69.1852C138.276 68.7116 138.465 68.2381 138.654 67.8119C138.844 67.3857 139.033 67.0069 139.27 66.628L139.46 66.2965C139.696 65.7756 139.933 65.5862 140.17 65.6809L141.733 66.2492C142.064 66.3439 142.301 66.628 142.443 66.9595C142.585 67.3383 142.822 68.0487 143.011 69.1852C143.295 70.5585 143.532 72.0738 143.674 73.6365C143.816 75.1992 143.911 76.0042 144.053 76.0516C144.1 76.0516 144.195 76.0516 144.29 75.8622C144.337 75.7675 144.384 75.6728 144.432 75.5781C144.479 75.4834 144.526 75.3413 144.574 75.1992C145.379 72.9736 145.947 70.7479 146.184 68.6169L146.279 68.1434C146.279 68.1434 146.326 68.0487 146.421 68.0487C146.468 68.0487 146.61 68.0487 146.752 68.096L148.362 68.6643C148.362 68.6643 148.599 68.8063 148.599 68.9011C148.599 68.9958 148.599 69.1852 148.599 69.4693C148.504 69.9902 148.41 70.4164 148.267 70.7952C148.078 71.4582 147.889 72.0738 147.699 72.6421C147.51 73.163 147.32 73.6839 147.178 74.2048C146.657 75.8148 146.373 76.7146 146.279 76.9513C146.089 77.4722 145.9 77.9458 145.758 78.372C145.189 79.7926 144.905 80.5029 144.905 80.5029C144.716 81.0238 144.526 81.45 144.384 81.7815C144.242 82.113 144.053 82.4918 143.816 82.9654V83.0601C143.485 83.5336 143.201 83.7231 142.869 83.6284L141.212 83.0127L140.975 82.918C140.975 82.918 140.928 82.8233 140.928 82.776L141.022 81.5921C141.07 80.9765 141.117 80.5029 141.164 80.1241C141.164 79.982 141.164 79.6506 141.212 79.177C141.354 77.1408 141.306 75.2939 141.07 73.6839C140.88 72.0738 140.596 71.2214 140.312 71.1267C140.17 71.0794 140.028 71.1267 139.886 71.3161C139.744 71.5056 139.602 71.7897 139.412 72.2159C138.418 75.0098 137.66 77.7564 137.234 80.4082L137.092 81.1186C137.092 81.1186 136.95 81.3553 136.855 81.4027C136.76 81.4027 136.618 81.4027 136.429 81.308L136.334 81.2133Z" fill="#646464"/>
<path d="M147.841 86.4696L145.758 85.049C145.473 84.8596 145.473 84.4334 145.758 83.7231C145.9 83.3442 146.089 82.9654 146.373 82.4918C146.61 82.0656 146.941 81.4974 147.368 80.9291C148.22 79.6979 149.214 78.5614 150.304 77.6143C151.393 76.6672 152.624 75.8622 153.95 75.2939C154.992 74.8204 155.986 74.5363 156.933 74.3942C157.88 74.2521 158.543 74.2995 158.827 74.4889C159.017 74.631 159.206 75.0098 159.396 75.5781C159.538 76.1463 159.632 76.8093 159.632 77.6143C159.632 79.0823 159.396 80.5029 158.827 81.9709C158.307 83.4389 157.454 85.0016 156.27 86.8011C155.797 87.5114 155.323 88.127 154.802 88.7427C154.281 89.3583 153.95 89.7371 153.713 89.9265C153.571 90.0686 153.429 90.1159 153.287 90.1159C153.192 90.1159 153.003 90.0212 152.813 89.8792L151.014 88.6953C151.014 88.6953 150.824 88.5532 150.777 88.4585C150.777 88.4112 150.73 88.3638 150.777 88.2691C150.777 88.2217 150.967 88.0797 151.251 87.8903C151.914 87.4167 152.482 86.9432 152.955 86.4696C153.429 85.9961 153.855 85.5699 154.139 85.0963C154.423 84.6701 154.518 84.3387 154.518 84.1019C154.518 83.8651 154.281 83.581 153.903 83.3442C153.524 83.1074 153.145 82.8707 152.624 82.6813C152.103 82.4918 151.677 82.3498 151.251 82.2551C150.824 82.1604 150.446 82.1604 150.162 82.2551C149.877 82.3498 149.593 82.5865 149.356 82.9654C148.978 83.5336 148.694 84.2913 148.504 85.1437C148.315 85.9961 148.22 86.4696 148.22 86.517C148.22 86.5643 148.125 86.6117 148.078 86.5643C148.078 86.5643 147.936 86.5643 147.841 86.4696ZM152.387 79.0823C152.387 79.0823 152.198 79.3664 152.198 79.4611C152.198 79.5559 152.292 79.6506 152.435 79.7453L153.334 80.0767C153.95 80.3135 154.518 80.5977 155.039 80.9765C155.513 81.308 155.844 81.4974 156.033 81.4974C156.223 81.4974 156.365 81.45 156.507 81.2133C156.649 80.9765 156.791 80.6924 156.933 80.3135C157.075 79.9347 157.123 79.5085 157.17 79.0349C157.265 78.372 157.265 77.9458 157.217 77.6617C157.217 77.3775 157.075 77.1881 156.933 77.0934C156.744 76.9987 156.507 76.9513 156.128 77.0461C155.749 77.1408 155.276 77.2828 154.66 77.5669C153.997 77.8511 153.476 78.1352 153.098 78.372C152.719 78.6087 152.482 78.8455 152.34 79.0349L152.387 79.0823Z" fill="#646464"/>
<path d="M185.441 89.4684L183.452 90.1314C183.168 90.2261 182.979 90.2261 182.884 90.1787C182.789 90.1314 182.647 89.9893 182.458 89.7052C182.316 89.4211 182.126 89.0422 181.937 88.5687C181.747 88.0951 181.558 87.6216 181.416 87.148C181.227 86.5798 181.037 86.0115 180.848 85.4906C180.232 83.6911 179.853 82.6967 179.759 82.4126C179.616 81.9864 179.474 81.5128 179.332 80.9919C178.953 79.666 178.717 78.9083 178.669 78.7663C178.48 78.2454 178.338 77.7245 178.243 77.2509C178.196 77.0141 178.148 76.6353 178.054 76.2091V76.1144C177.959 75.4988 178.054 75.1673 178.243 75.0726L180.232 74.4096C180.564 74.3149 180.848 74.3149 181.132 74.4096C181.416 74.5517 181.795 74.8358 182.316 75.3094C182.931 75.8776 183.5 76.4932 184.115 77.2036C184.683 77.9139 185.015 78.2927 185.11 78.2454C185.11 78.2454 185.204 77.7718 185.299 76.8247C185.299 76.3512 185.394 75.8776 185.488 75.4514C185.583 75.0252 185.678 74.599 185.773 74.1729C185.962 73.5099 186.151 72.989 186.293 72.7522C186.483 72.4681 186.672 72.2787 186.909 72.184L188.566 71.6157C188.898 71.521 189.182 71.7104 189.419 72.184L189.514 72.326C189.75 72.7996 189.987 73.2731 190.177 73.7467C190.366 74.1729 190.508 74.599 190.65 75.0252C190.792 75.4041 190.982 76.0197 191.313 76.9668C191.645 77.8665 191.881 78.5768 192.071 79.1451C192.213 79.6186 192.45 80.2816 192.686 81.134C192.923 81.9864 193.113 82.5073 193.16 82.7914C193.349 83.3123 193.491 83.8332 193.586 84.3068C193.633 84.5909 193.728 85.0171 193.823 85.538V85.7748C193.965 86.343 193.823 86.7218 193.491 86.8166L191.313 87.5269C191.313 87.5269 191.124 87.5742 191.076 87.5269C191.029 87.4795 190.982 87.5269 190.982 87.4322V86.6271C190.887 86.1536 190.84 85.5853 190.745 84.9224C190.65 84.2594 190.508 83.5017 190.319 82.6493C190.129 81.797 189.75 80.6131 189.277 79.1925L189.135 78.7189C188.851 77.8192 188.566 77.2036 188.377 76.8247C188.188 76.4459 187.998 76.3038 187.809 76.3512C187.619 76.3985 187.477 76.8247 187.383 77.6771C187.288 78.4821 187.288 79.4292 187.383 80.6131C187.383 81.2287 187.525 82.0811 187.667 83.0755C187.856 84.3068 187.714 85.0171 187.288 85.1591C186.814 85.3012 186.246 84.8277 185.583 83.6912C185.11 82.8388 184.731 82.2231 184.399 81.797C183.642 80.6604 182.979 79.8081 182.458 79.2398C181.937 78.6716 181.558 78.4348 181.321 78.4821C181.179 78.4821 181.132 78.7663 181.227 79.2398C181.227 79.4292 181.369 79.7607 181.463 80.1869C181.605 80.6131 181.747 81.0866 181.889 81.6075C182.742 84.2121 183.878 86.5798 185.252 88.6634L185.536 89.1843C185.536 89.1843 185.536 89.3264 185.536 89.4211C185.536 89.4211 185.441 89.5158 185.346 89.5631L185.441 89.4684Z" fill="#646464"/>
<path d="M203.388 87.8109L196.096 86.4376C195.812 86.3903 195.669 86.2956 195.622 86.2008C195.622 86.1061 195.575 85.822 195.622 85.3958C195.622 85.159 195.669 84.8749 195.717 84.5434C195.717 84.2119 195.812 83.8331 195.906 83.3596L196.522 79.808C196.806 78.34 197.137 76.9667 197.469 75.7355C197.658 75.0725 197.848 74.4569 198.037 73.936C198.227 73.4151 198.416 72.8468 198.653 72.3259C198.89 71.7577 199.079 71.4262 199.221 71.2368C199.363 71.0474 199.553 71 199.695 71L206.277 72.2312C206.277 72.2312 206.561 72.2786 206.608 72.3259C206.656 72.3259 206.703 72.4206 206.656 72.5153V72.6101L206.608 72.6574L205.188 74.8831C205.188 74.8831 205.046 75.0725 204.998 75.0725C204.998 75.0725 204.904 75.1199 204.856 75.1199C204.856 75.1199 204.856 75.1199 204.809 75.1199C204.762 75.1199 204.714 75.0251 204.667 74.9778C204.004 74.3622 203.341 73.9833 202.631 73.8413C201.873 73.6992 201.257 73.8413 200.736 74.2201C200.216 74.599 199.884 75.2619 199.695 76.1143C199.647 76.3984 199.647 76.6352 199.695 76.872C199.742 77.1088 199.884 77.2035 200.026 77.2035C200.168 77.2035 200.642 77.2035 201.352 76.9667C202.062 76.7773 202.631 76.7299 203.104 76.8246C203.578 76.9193 203.862 77.014 204.004 77.0614C204.146 77.1087 204.193 77.2508 204.146 77.3455V77.5349L202.915 79.808L202.82 79.95C202.82 79.95 202.678 80.1395 202.631 80.1395L202.157 79.9027C201.826 79.7133 201.541 79.6185 201.257 79.5712C200.642 79.4765 200.121 79.5712 199.647 79.9974C199.174 80.3762 198.842 80.9445 198.7 81.7022C198.558 82.5545 198.605 83.2175 198.89 83.7858C199.174 84.354 199.695 84.6855 200.405 84.7802C200.973 84.8749 201.589 84.7802 202.299 84.4961L203.388 84.0225C203.388 84.0225 203.483 84.0225 203.53 84.1172C203.578 84.212 203.578 84.2593 203.625 84.354L204.241 87.3374V87.4794V87.5741C204.241 87.7162 204.146 87.8109 204.004 87.8583C203.862 87.9056 203.672 87.8583 203.436 87.8583L203.388 87.8109Z" fill="#646464"/>
<path d="M208.835 82.2704C208.835 82.2704 208.835 82.5545 208.693 82.9807C208.551 83.4069 208.408 83.8331 208.361 84.2119C208.266 84.9696 208.361 85.6326 208.645 86.2008C208.929 86.7691 209.356 87.1953 210.019 87.5741C210.634 87.9056 211.202 88.0477 211.723 87.953C212.244 87.8583 212.67 87.5741 212.955 87.0532C213.381 86.2955 213.049 85.159 211.865 83.7384L211.723 83.549C210.824 82.4125 210.303 81.3707 210.161 80.4709C210.019 79.5712 210.208 78.6241 210.776 77.677C211.392 76.5878 212.292 75.8775 213.333 75.546C213.854 75.404 214.423 75.3566 214.943 75.4513C215.512 75.546 216.033 75.7355 216.601 76.0669C217.501 76.5878 218.211 77.2508 218.732 78.1032C219.253 78.9556 219.442 79.5238 219.253 79.9027C219.205 79.9974 219.063 80.1394 218.874 80.2815C218.684 80.4236 218.448 80.613 218.116 80.8024C217.832 80.9918 217.595 81.1339 217.406 81.2286C217.216 81.3233 217.074 81.3233 216.98 81.2286L216.506 79.9974C216.222 79.1923 215.796 78.6241 215.228 78.2926C214.801 78.0558 214.423 78.0085 213.996 78.1032C213.57 78.1979 213.239 78.482 213.002 78.9082C212.765 79.2871 212.718 79.6659 212.86 80.0921C213.002 80.5183 213.381 81.1339 214.091 81.9863C215.133 83.2648 215.748 84.4014 215.938 85.3958C216.127 86.3903 215.938 87.4321 215.275 88.4739C214.517 89.7524 213.523 90.6048 212.292 90.8889C211.06 91.2204 209.782 91.031 208.456 90.2733C207.272 89.6104 206.467 88.6633 206.135 87.5268C205.804 86.3903 205.946 85.2537 206.562 84.1646C206.893 83.5963 207.319 83.0754 207.793 82.6966C208.266 82.3178 208.598 82.1757 208.787 82.2704H208.835Z" fill="#646464"/>
<path d="M221.052 97.5186C220.483 97.6133 219.915 97.5186 219.347 97.4239C218.779 97.2818 218.305 96.9977 217.831 96.6189C216.553 95.5771 216.032 94.2038 216.221 92.4517C216.411 90.6995 217.311 88.8527 218.873 86.9112C220.436 84.9696 222.093 83.7384 223.798 83.1702C225.503 82.6019 226.971 82.8387 228.202 83.8805C229.386 84.8276 229.86 86.1535 229.67 87.9056C229.481 89.6104 228.628 91.4099 227.113 93.2567C226.545 93.967 225.929 94.63 225.266 95.1982C224.603 95.7665 223.94 96.2874 223.183 96.8083C223.183 97.4713 223.135 97.9922 222.993 98.4657C222.851 98.9393 222.614 99.3654 222.33 99.7443C222.141 99.9811 221.951 100.17 221.809 100.265C221.667 100.36 221.525 100.407 221.478 100.313C221.43 100.265 221.336 99.8863 221.288 99.2707C221.288 98.7025 221.194 98.1342 221.099 97.5186H221.052ZM220.436 94.4879C220.341 93.7302 220.389 93.0199 220.531 92.357C220.673 91.7413 220.957 91.1731 221.383 90.6522C221.572 90.4154 221.762 90.2733 221.951 90.1313C222.141 90.0366 222.283 89.9892 222.33 90.0366V90.1313C222.188 90.5575 222.141 91.031 222.188 91.6466C222.188 91.8834 222.188 92.0728 222.283 92.3096C222.283 92.5464 222.377 92.7358 222.425 92.9252C222.52 93.304 222.662 93.5408 222.756 93.6829C222.993 93.5408 223.372 93.2567 223.845 92.8305C224.319 92.4043 224.745 91.8834 225.219 91.3625C226.213 90.1786 226.781 89.0895 226.971 88.1897C227.16 87.29 226.971 86.5797 226.403 86.0588C225.74 85.5379 224.935 85.4905 223.988 85.9641C223.04 86.4376 221.999 87.3374 220.909 88.7106C220.389 89.3263 219.962 89.9419 219.678 90.4628C219.394 90.9837 219.157 91.4572 219.063 91.9781C218.873 92.8779 219.063 93.5882 219.631 94.0617C219.678 94.0617 219.726 94.1564 219.773 94.2038C219.868 94.2038 219.915 94.2511 219.915 94.2985C220.057 94.3459 220.104 94.3932 220.152 94.4406C220.152 94.4406 220.294 94.4406 220.436 94.5353V94.4879Z" fill="#646464"/>
<path d="M240.893 97.3765C240.893 97.3765 241.083 97.708 241.083 97.8501C241.083 97.9922 240.988 98.1816 240.799 98.4657C240.372 98.9866 239.757 99.6496 238.904 100.455C238.62 100.691 238.194 101.07 237.578 101.638C236.963 102.207 236.442 102.633 236.063 102.917C233.743 104.811 231.754 105.853 230.049 106.137C228.344 106.421 226.971 105.853 225.882 104.574C224.887 103.343 224.651 101.875 225.266 100.265C225.882 98.6551 227.208 96.9504 229.339 95.2456C230.428 94.3458 231.47 93.5882 232.512 92.8779C233.506 92.1675 234.311 91.694 234.974 91.3625C235.305 91.1731 235.542 91.1257 235.637 91.1257C235.732 91.1257 235.874 91.2204 236.016 91.4099L237.342 93.0199C237.342 93.0199 237.436 93.162 237.436 93.2093C237.436 93.2093 237.436 93.304 237.342 93.3988C237.247 93.4935 236.963 93.6355 236.537 93.8249C234.832 94.6773 233.269 95.6718 231.896 96.7609C230.381 97.9922 229.386 99.0813 228.913 100.028C228.439 100.976 228.486 101.781 229.007 102.443C229.528 103.059 230.191 103.296 231.091 103.059C231.943 102.822 233.08 102.159 234.5 101.023C236.205 99.6496 237.721 98.1342 238.999 96.4768L239.425 95.9559C239.425 95.9559 239.567 95.8612 239.615 95.9086C239.709 95.9086 239.757 96.0033 239.852 96.098L240.941 97.4239L240.893 97.3765Z" fill="#646464"/>
<path d="M231.612 112.719L230.665 110.967C230.665 110.967 230.475 110.636 230.475 110.541C230.475 110.446 230.57 110.304 230.665 110.21C230.901 109.973 231.185 109.736 231.422 109.547C231.706 109.357 231.99 109.168 232.275 108.978C232.511 108.836 232.843 108.647 233.269 108.41C234.216 107.842 234.879 107.416 235.305 107.179C235.779 106.895 236.3 106.658 236.773 106.374C237.247 106.137 237.768 105.853 238.336 105.569C238.904 105.285 239.33 105.048 239.615 104.906C240.23 104.574 240.846 104.243 241.556 103.959C241.793 103.864 242.408 103.627 243.356 103.249C243.782 103.059 244.019 103.012 244.161 103.012C244.303 103.012 244.397 103.106 244.492 103.343L245.487 105.095C245.487 105.095 245.581 105.332 245.581 105.427C245.581 105.522 245.581 105.569 245.487 105.569C245.392 105.616 245.108 105.758 244.634 105.9C242.408 106.611 240.42 107.463 238.62 108.505C237.578 109.073 236.584 109.689 235.637 110.352C234.69 111.015 233.695 111.725 232.748 112.53C232.653 112.577 232.559 112.672 232.417 112.814C232.275 112.956 232.133 113.051 232.085 113.051C231.99 113.098 231.896 113.098 231.848 113.051C231.754 113.051 231.706 112.909 231.612 112.767V112.719Z" fill="#646464"/>
<path d="M234.737 120.107L233.98 117.976C233.98 117.976 233.932 117.692 233.98 117.55C234.027 117.455 234.169 117.313 234.453 117.171C234.832 116.934 235.4 116.65 236.205 116.318C236.442 116.224 236.726 116.129 237.058 115.987C237.863 115.655 238.384 115.466 238.62 115.371C240.514 114.708 242.503 114.14 244.729 113.714C245.392 113.572 245.771 113.524 245.866 113.477C246.102 113.382 246.244 113.288 246.292 113.24C246.339 113.146 246.339 113.051 246.292 112.862C246.244 112.672 246.055 112.483 245.771 112.199C245.487 111.962 245.061 111.678 244.587 111.346C244.398 111.251 244.113 111.062 243.735 110.873C243.356 110.683 243.119 110.494 243.072 110.352C243.072 110.257 243.072 110.21 243.166 110.115C243.261 110.02 243.356 109.973 243.545 109.926C243.64 109.926 243.924 109.831 244.35 109.783L245.392 109.594L245.818 109.499C246.529 109.357 246.955 109.357 247.191 109.499C247.57 109.783 247.997 110.304 248.517 111.015C248.991 111.725 249.37 112.53 249.701 113.382C250.175 114.708 250.459 115.94 250.506 116.934C250.506 117.976 250.364 118.544 249.985 118.686C249.465 118.876 248.849 118.97 248.186 118.97C247.476 118.97 247.097 118.923 247.049 118.781C247.049 118.734 247.049 118.591 247.239 118.355C247.428 118.118 247.476 117.881 247.57 117.692C247.712 117.36 247.807 117.076 247.807 116.839C247.807 116.603 247.807 116.413 247.807 116.224C247.665 115.845 247.191 115.703 246.386 115.798C245.581 115.892 244.303 116.271 242.551 116.887C240.041 117.786 237.815 118.876 235.968 120.249C235.874 120.296 235.779 120.344 235.732 120.438C235.637 120.486 235.59 120.533 235.542 120.533C235.448 120.533 235.4 120.533 235.258 120.438C235.163 120.344 235.069 120.249 235.021 120.059L234.737 120.107Z" fill="#646464"/>
<path d="M236.49 127.399L236.158 124.89C236.158 124.558 236.442 124.274 237.153 123.99C237.532 123.848 237.958 123.753 238.479 123.611C238.999 123.516 239.615 123.374 240.325 123.327C241.841 123.137 243.309 123.137 244.777 123.327C246.245 123.516 247.618 123.895 248.944 124.511C249.986 124.984 250.886 125.505 251.643 126.121C252.401 126.736 252.78 127.257 252.827 127.589C252.827 127.826 252.732 128.204 252.401 128.725C252.069 129.246 251.596 129.72 251.028 130.241C249.938 131.188 248.66 131.993 247.239 132.561C245.819 133.129 244.019 133.556 241.935 133.84C241.083 133.934 240.278 134.029 239.52 134.029C238.763 134.029 238.194 134.029 237.91 134.029C237.721 134.029 237.579 133.934 237.484 133.84C237.389 133.745 237.342 133.556 237.295 133.319L237.011 131.188C237.011 131.188 237.011 130.904 237.011 130.856C237.011 130.762 237.058 130.762 237.105 130.714C237.153 130.714 237.389 130.714 237.721 130.809C238.526 130.998 239.284 131.093 239.947 131.14C240.61 131.188 241.225 131.14 241.746 131.14C242.22 131.093 242.551 130.951 242.74 130.762C242.93 130.572 242.977 130.241 242.883 129.815C242.835 129.388 242.693 128.915 242.551 128.441C242.362 127.968 242.172 127.494 241.983 127.115C241.793 126.736 241.509 126.452 241.225 126.31C240.941 126.168 240.61 126.121 240.136 126.168C239.426 126.263 238.668 126.547 237.91 126.973C237.153 127.399 236.726 127.636 236.679 127.636C236.632 127.636 236.584 127.636 236.537 127.636C236.537 127.636 236.537 127.494 236.49 127.399ZM245.061 125.884C245.061 125.884 244.729 125.931 244.682 126.026C244.635 126.073 244.587 126.216 244.635 126.358L244.966 127.257C245.203 127.873 245.345 128.489 245.44 129.152C245.487 129.72 245.582 130.099 245.677 130.241C245.771 130.383 245.961 130.43 246.197 130.43C246.482 130.43 246.813 130.288 247.144 130.146C247.523 130.004 247.902 129.767 248.281 129.53C248.802 129.152 249.181 128.867 249.323 128.678C249.512 128.489 249.56 128.299 249.56 128.11C249.56 127.92 249.37 127.684 249.086 127.447C248.802 127.21 248.328 126.973 247.713 126.689C247.05 126.405 246.529 126.216 246.103 126.073C245.677 125.931 245.345 125.884 245.108 125.931L245.061 125.884Z" fill="#646464"/>
<path d="M81.7006 224L79.3143 215.273H80.3881L82.212 222.381H82.2972L84.1552 215.273H85.3484L87.2063 222.381H87.2915L89.1154 215.273H90.1893L87.8029 224H86.712L84.7859 217.045H84.7177L82.7915 224H81.7006ZM91.506 224V215.273H96.7731V216.21H92.5629V219.159H96.5004V220.097H92.5629V223.062H96.8413V224H91.506ZM98.6779 224V215.273H101.729C102.337 215.273 102.838 215.378 103.233 215.588C103.628 215.795 103.922 216.075 104.115 216.428C104.309 216.777 104.405 217.165 104.405 217.591C104.405 217.966 104.338 218.276 104.205 218.52C104.074 218.764 103.901 218.957 103.685 219.099C103.472 219.241 103.24 219.347 102.99 219.415V219.5C103.257 219.517 103.526 219.611 103.796 219.781C104.066 219.952 104.292 220.196 104.473 220.514C104.655 220.832 104.746 221.222 104.746 221.682C104.746 222.119 104.647 222.513 104.448 222.862C104.249 223.212 103.935 223.489 103.506 223.693C103.077 223.898 102.519 224 101.831 224H98.6779ZM99.7347 223.062H101.831C102.522 223.062 103.012 222.929 103.301 222.662C103.594 222.392 103.74 222.065 103.74 221.682C103.74 221.386 103.665 221.114 103.515 220.864C103.364 220.611 103.15 220.409 102.871 220.259C102.593 220.105 102.263 220.028 101.882 220.028H99.7347V223.062ZM99.7347 219.108H101.695C102.013 219.108 102.3 219.045 102.556 218.92C102.814 218.795 103.019 218.619 103.169 218.392C103.323 218.165 103.4 217.898 103.4 217.591C103.4 217.207 103.266 216.882 102.999 216.615C102.732 216.345 102.309 216.21 101.729 216.21H99.7347V219.108ZM112.551 224H109.858V215.273H112.67C113.517 215.273 114.241 215.447 114.843 215.797C115.446 216.143 115.907 216.642 116.228 217.293C116.549 217.94 116.71 218.716 116.71 219.619C116.71 220.528 116.548 221.311 116.224 221.967C115.9 222.621 115.429 223.124 114.809 223.476C114.19 223.825 113.437 224 112.551 224ZM110.914 223.062H112.483C113.204 223.062 113.802 222.923 114.277 222.645C114.751 222.366 115.105 221.97 115.338 221.456C115.571 220.942 115.687 220.33 115.687 219.619C115.687 218.915 115.572 218.308 115.342 217.8C115.112 217.288 114.768 216.896 114.311 216.624C113.853 216.348 113.284 216.21 112.602 216.21H110.914V223.062ZM118.483 224V215.273H123.75V216.21H119.539V219.159H123.477V220.097H119.539V223.062H123.818V224H118.483ZM126.012 215.273L128.603 222.619H128.706L131.297 215.273H132.404L129.2 224H128.109L124.904 215.273H126.012ZM133.764 224V215.273H139.031V216.21H134.821V219.159H138.758V220.097H134.821V223.062H139.099V224H133.764ZM140.936 224V215.273H141.993V223.062H146.049V224H140.936ZM154.71 219.636C154.71 220.557 154.543 221.352 154.211 222.023C153.879 222.693 153.423 223.21 152.843 223.574C152.263 223.938 151.602 224.119 150.857 224.119C150.113 224.119 149.451 223.938 148.871 223.574C148.292 223.21 147.836 222.693 147.504 222.023C147.171 221.352 147.005 220.557 147.005 219.636C147.005 218.716 147.171 217.92 147.504 217.25C147.836 216.58 148.292 216.062 148.871 215.699C149.451 215.335 150.113 215.153 150.857 215.153C151.602 215.153 152.263 215.335 152.843 215.699C153.423 216.062 153.879 216.58 154.211 217.25C154.543 217.92 154.71 218.716 154.71 219.636ZM153.687 219.636C153.687 218.881 153.56 218.243 153.308 217.723C153.058 217.203 152.718 216.81 152.289 216.543C151.863 216.276 151.386 216.142 150.857 216.142C150.329 216.142 149.85 216.276 149.421 216.543C148.995 216.81 148.656 217.203 148.403 217.723C148.153 218.243 148.028 218.881 148.028 219.636C148.028 220.392 148.153 221.03 148.403 221.55C148.656 222.07 148.995 222.463 149.421 222.73C149.85 222.997 150.329 223.131 150.857 223.131C151.386 223.131 151.863 222.997 152.289 222.73C152.718 222.463 153.058 222.07 153.308 221.55C153.56 221.03 153.687 220.392 153.687 219.636ZM156.487 224V215.273H159.435C160.12 215.273 160.68 215.396 161.114 215.643C161.552 215.888 161.876 216.219 162.086 216.636C162.296 217.054 162.401 217.52 162.401 218.034C162.401 218.548 162.296 219.016 162.086 219.436C161.879 219.857 161.558 220.192 161.123 220.442C160.688 220.689 160.131 220.812 159.452 220.812H157.339V219.875H159.418C159.887 219.875 160.263 219.794 160.548 219.632C160.832 219.47 161.038 219.251 161.165 218.976C161.296 218.697 161.362 218.384 161.362 218.034C161.362 217.685 161.296 217.372 161.165 217.097C161.038 216.821 160.83 216.605 160.543 216.449C160.256 216.29 159.876 216.21 159.401 216.21H157.543V224H156.487ZM164.104 224V215.273H169.371V216.21H165.161V219.159H169.098V220.097H165.161V223.062H169.439V224H164.104ZM171.276 224V215.273H174.224C174.906 215.273 175.466 215.389 175.903 215.622C176.341 215.852 176.665 216.169 176.875 216.572C177.085 216.976 177.19 217.435 177.19 217.949C177.19 218.463 177.085 218.919 176.875 219.317C176.665 219.714 176.342 220.027 175.908 220.254C175.473 220.479 174.918 220.591 174.241 220.591H171.855V219.636H174.207C174.673 219.636 175.048 219.568 175.332 219.432C175.619 219.295 175.827 219.102 175.955 218.852C176.085 218.599 176.151 218.298 176.151 217.949C176.151 217.599 176.085 217.294 175.955 217.033C175.824 216.771 175.615 216.57 175.328 216.428C175.041 216.283 174.662 216.21 174.19 216.21H172.332V224H171.276ZM175.384 220.08L177.531 224H176.304L174.19 220.08H175.384ZM70.9689 239V230.273H74.0201C74.628 230.273 75.1294 230.378 75.5243 230.588C75.9192 230.795 76.2132 231.075 76.4064 231.428C76.5996 231.777 76.6962 232.165 76.6962 232.591C76.6962 232.966 76.6294 233.276 76.4959 233.52C76.3652 233.764 76.1919 233.957 75.976 234.099C75.763 234.241 75.5314 234.347 75.2814 234.415V234.5C75.5485 234.517 75.8169 234.611 76.0868 234.781C76.3567 234.952 76.5826 235.196 76.7644 235.514C76.9462 235.832 77.0371 236.222 77.0371 236.682C77.0371 237.119 76.9377 237.513 76.7388 237.862C76.54 238.212 76.226 238.489 75.7971 238.693C75.3681 238.898 74.8098 239 74.1223 239H70.9689ZM72.0257 238.062H74.1223C74.8127 238.062 75.3027 237.929 75.5925 237.662C75.8851 237.392 76.0314 237.065 76.0314 236.682C76.0314 236.386 75.9561 236.114 75.8056 235.864C75.655 235.611 75.4405 235.409 75.1621 235.259C74.8837 235.105 74.5542 235.028 74.1735 235.028H72.0257V238.062ZM72.0257 234.108H73.986C74.3042 234.108 74.5911 234.045 74.8468 233.92C75.1053 233.795 75.3098 233.619 75.4604 233.392C75.6138 233.165 75.6905 232.898 75.6905 232.591C75.6905 232.207 75.557 231.882 75.29 231.615C75.0229 231.345 74.5996 231.21 74.0201 231.21H72.0257V234.108ZM79.1316 239H78.0236L81.2282 230.273H82.3191L85.5236 239H84.4157L81.8077 231.653H81.7395L79.1316 239ZM79.5407 235.591H84.0066V236.528H79.5407V235.591ZM91.6557 232.455C91.6046 232.023 91.3972 231.688 91.0336 231.449C90.6699 231.21 90.2239 231.091 89.6955 231.091C89.3091 231.091 88.9711 231.153 88.6813 231.278C88.3944 231.403 88.1699 231.575 88.008 231.794C87.8489 232.013 87.7694 232.261 87.7694 232.54C87.7694 232.773 87.8248 232.973 87.9355 233.141C88.0492 233.305 88.1941 233.443 88.3702 233.554C88.5463 233.662 88.731 233.751 88.9242 233.822C89.1174 233.891 89.2949 233.946 89.4569 233.989L90.3432 234.227C90.5705 234.287 90.8233 234.369 91.1017 234.474C91.383 234.58 91.6515 234.723 91.9071 234.905C92.1657 235.084 92.3787 235.314 92.5463 235.595C92.714 235.876 92.7978 236.222 92.7978 236.631C92.7978 237.102 92.6742 237.528 92.427 237.909C92.1827 238.29 91.8248 238.592 91.3532 238.817C90.8844 239.041 90.3148 239.153 89.6444 239.153C89.0194 239.153 88.4782 239.053 88.0208 238.851C87.5662 238.649 87.2083 238.368 86.9469 238.007C86.6884 237.646 86.5421 237.227 86.508 236.75H87.5989C87.6273 237.08 87.7381 237.352 87.9313 237.568C88.1273 237.781 88.3745 237.94 88.6728 238.045C88.9739 238.148 89.2978 238.199 89.6444 238.199C90.0478 238.199 90.41 238.134 90.731 238.003C91.052 237.869 91.3063 237.685 91.4938 237.449C91.6813 237.21 91.775 236.932 91.775 236.614C91.775 236.324 91.6941 236.088 91.5321 235.906C91.3702 235.724 91.1571 235.577 90.8929 235.463C90.6287 235.349 90.3432 235.25 90.0364 235.165L88.9625 234.858C88.2807 234.662 87.7409 234.382 87.3432 234.018C86.9455 233.655 86.7466 233.179 86.7466 232.591C86.7466 232.102 86.8787 231.676 87.1429 231.312C87.41 230.946 87.7679 230.662 88.2168 230.46C88.6685 230.256 89.1728 230.153 89.7296 230.153C90.2921 230.153 90.7921 230.254 91.2296 230.456C91.6671 230.655 92.0137 230.928 92.2694 231.274C92.5279 231.621 92.6642 232.014 92.6784 232.455H91.6557ZM94.5353 239V230.273H99.8024V231.21H95.5922V234.159H99.5297V235.097H95.5922V238.062H99.8706V239H94.5353ZM104.4 239H101.707V230.273H104.52C105.366 230.273 106.091 230.447 106.693 230.797C107.295 231.143 107.757 231.642 108.078 232.293C108.399 232.94 108.559 233.716 108.559 234.619C108.559 235.528 108.398 236.311 108.074 236.967C107.75 237.621 107.278 238.124 106.659 238.476C106.04 238.825 105.287 239 104.4 239ZM102.764 238.062H104.332C105.054 238.062 105.652 237.923 106.126 237.645C106.601 237.366 106.954 236.97 107.187 236.456C107.42 235.942 107.537 235.33 107.537 234.619C107.537 233.915 107.422 233.308 107.192 232.8C106.961 232.288 106.618 231.896 106.16 231.624C105.703 231.348 105.133 231.21 104.452 231.21H102.764V238.062ZM114.764 230.273V239H113.707V230.273H114.764ZM123.803 230.273V239H122.781L118.025 232.148H117.94V239H116.883V230.273H117.906L122.678 237.142H122.764V230.273H123.803ZM128.816 231.21V230.273H135.361V231.21H132.617V239H131.56V231.21H128.816ZM143.993 234.636C143.993 235.557 143.827 236.352 143.494 237.023C143.162 237.693 142.706 238.21 142.126 238.574C141.547 238.938 140.885 239.119 140.14 239.119C139.396 239.119 138.734 238.938 138.155 238.574C137.575 238.21 137.119 237.693 136.787 237.023C136.454 236.352 136.288 235.557 136.288 234.636C136.288 233.716 136.454 232.92 136.787 232.25C137.119 231.58 137.575 231.062 138.155 230.699C138.734 230.335 139.396 230.153 140.14 230.153C140.885 230.153 141.547 230.335 142.126 230.699C142.706 231.062 143.162 231.58 143.494 232.25C143.827 232.92 143.993 233.716 143.993 234.636ZM142.97 234.636C142.97 233.881 142.844 233.243 142.591 232.723C142.341 232.203 142.001 231.81 141.572 231.543C141.146 231.276 140.669 231.142 140.14 231.142C139.612 231.142 139.133 231.276 138.704 231.543C138.278 231.81 137.939 232.203 137.686 232.723C137.436 233.243 137.311 233.881 137.311 234.636C137.311 235.392 137.436 236.03 137.686 236.55C137.939 237.07 138.278 237.463 138.704 237.73C139.133 237.997 139.612 238.131 140.14 238.131C140.669 238.131 141.146 237.997 141.572 237.73C142.001 237.463 142.341 237.07 142.591 236.55C142.844 236.03 142.97 235.392 142.97 234.636ZM145.77 239V230.273H148.719C149.4 230.273 149.96 230.389 150.398 230.622C150.835 230.852 151.159 231.169 151.369 231.572C151.579 231.976 151.684 232.435 151.684 232.949C151.684 233.463 151.579 233.919 151.369 234.317C151.159 234.714 150.836 235.027 150.402 235.254C149.967 235.479 149.412 235.591 148.736 235.591H146.349V234.636H148.702C149.167 234.636 149.542 234.568 149.827 234.432C150.113 234.295 150.321 234.102 150.449 233.852C150.579 233.599 150.645 233.298 150.645 232.949C150.645 232.599 150.579 232.294 150.449 232.033C150.318 231.771 150.109 231.57 149.822 231.428C149.535 231.283 149.156 231.21 148.684 231.21H146.827V239H145.77ZM149.878 235.08L152.025 239H150.798L148.684 235.08H149.878ZM160.809 234.636C160.809 235.557 160.643 236.352 160.311 237.023C159.978 237.693 159.522 238.21 158.943 238.574C158.363 238.938 157.701 239.119 156.957 239.119C156.213 239.119 155.551 238.938 154.971 238.574C154.392 238.21 153.936 237.693 153.603 237.023C153.271 236.352 153.105 235.557 153.105 234.636C153.105 233.716 153.271 232.92 153.603 232.25C153.936 231.58 154.392 231.062 154.971 230.699C155.551 230.335 156.213 230.153 156.957 230.153C157.701 230.153 158.363 230.335 158.943 230.699C159.522 231.062 159.978 231.58 160.311 232.25C160.643 232.92 160.809 233.716 160.809 234.636ZM159.786 234.636C159.786 233.881 159.66 233.243 159.407 232.723C159.157 232.203 158.818 231.81 158.389 231.543C157.963 231.276 157.485 231.142 156.957 231.142C156.428 231.142 155.95 231.276 155.521 231.543C155.095 231.81 154.755 232.203 154.502 232.723C154.252 233.243 154.127 233.881 154.127 234.636C154.127 235.392 154.252 236.03 154.502 236.55C154.755 237.07 155.095 237.463 155.521 237.73C155.95 237.997 156.428 238.131 156.957 238.131C157.485 238.131 157.963 237.997 158.389 237.73C158.818 237.463 159.157 237.07 159.407 236.55C159.66 236.03 159.786 235.392 159.786 234.636ZM169.507 230.273V239H168.484L163.728 232.148H163.643V239H162.586V230.273H163.609L168.382 237.142H168.467V230.273H169.507ZM171.144 231.21V230.273H177.689V231.21H174.945V239H173.888V231.21H171.144ZM186.321 234.636C186.321 235.557 186.155 236.352 185.822 237.023C185.49 237.693 185.034 238.21 184.454 238.574C183.875 238.938 183.213 239.119 182.469 239.119C181.724 239.119 181.062 238.938 180.483 238.574C179.903 238.21 179.447 237.693 179.115 237.023C178.782 236.352 178.616 235.557 178.616 234.636C178.616 233.716 178.782 232.92 179.115 232.25C179.447 231.58 179.903 231.062 180.483 230.699C181.062 230.335 181.724 230.153 182.469 230.153C183.213 230.153 183.875 230.335 184.454 230.699C185.034 231.062 185.49 231.58 185.822 232.25C186.155 232.92 186.321 233.716 186.321 234.636ZM185.298 234.636C185.298 233.881 185.172 233.243 184.919 232.723C184.669 232.203 184.329 231.81 183.9 231.543C183.474 231.276 182.997 231.142 182.469 231.142C181.94 231.142 181.461 231.276 181.032 231.543C180.606 231.81 180.267 232.203 180.014 232.723C179.764 233.243 179.639 233.881 179.639 234.636C179.639 235.392 179.764 236.03 180.014 236.55C180.267 237.07 180.606 237.463 181.032 237.73C181.461 237.997 181.94 238.131 182.469 238.131C182.997 238.131 183.474 237.997 183.9 237.73C184.329 237.463 184.669 237.07 184.919 236.55C185.172 236.03 185.298 235.392 185.298 234.636Z" fill="black"/>
</svg>
