<svg width="96" height="108" viewBox="0 0 96 108" fill="none" xmlns="http://www.w3.org/2000/svg">
<path d="M27.6717 85.293L25.6927 80.1655C24.0891 76.0097 21.1064 72.9397 16.973 71.2292L9 67.9306L16.5772 64.7259C20.2536 63.1705 23.0446 60.5333 24.795 56.9367C26.0232 54.7363 26.9168 52.4461 27.6921 50.0334L28.9896 46C30.3566 50.9805 31.8745 55.3364 34.3471 59.6311L37.5747 62.9215C40.6594 65.3383 44.1318 66.7998 48 68.2817C41.9244 70.3678 36.5709 73.005 33.4291 78.7163C31.6296 82.4966 30.3362 86.1013 29.1896 90L27.6676 85.2889L27.6717 85.293Z" fill="#FFF6A3"/>
<g clip-path="url(#clip0_181_80)">
<path d="M29.1338 46.001C30.3176 46.0248 31.0873 46.9808 31.2686 48.2412C31.5768 50.3861 31.9249 52.4312 32.5273 54.5381C34.0689 59.9317 34.7542 62.6588 40.5791 64.4805C45.0906 65.893 47.6061 64.8497 47.9287 67.8242C47.997 68.4497 48.0959 69.2159 47.7734 69.7344C47.5309 70.1266 46.7383 70.5589 46.1807 70.6328C41.323 71.2583 36.1499 72.2602 34.2012 76.8809C32.7115 80.4146 31.8523 84.0742 31.2568 87.8838C31.1062 88.8562 30.4944 89.6529 29.7744 89.8838C28.8048 90.1929 27.5476 89.9148 27.3193 88.8066L26.5264 84.957L26.5312 84.9541L24.2363 77.418C23.8904 76.2813 23.09 74.7857 22.1533 74.1055C19.8658 72.4408 17.317 71.601 14.6553 70.7188L11.0566 70.0527C9.59519 69.7816 8.50779 68.2362 9.23242 66.7832C10.0114 65.2232 12.9085 65.8266 15.9492 64.6162L20 63.002C21.8498 62.2647 23.2197 60.9564 23.8857 59.0254L25.7686 53.5654C27.263 49.2278 26.5097 45.9511 29.1338 46.001ZM28.2461 57.4961C27.7989 58.9016 27.2836 60.2358 26.5752 61.5176C25.5656 63.6127 23.9564 65.1496 21.8359 66.0557L17.4648 67.9219L22.0635 69.8408C24.4476 70.8373 26.1688 72.6259 27.0938 75.0469L28.2344 78.0342H28.2324L29.1104 80.7783C29.7717 78.5096 30.5178 76.4072 31.5557 74.2051C33.3678 70.8781 36.4556 69.3422 39.96 68.127C37.7288 67.2613 35.7255 66.4118 33.9463 65.0039L32.085 63.0869C30.6589 60.5853 29.7835 58.0476 28.9951 55.1465L28.2461 57.4961Z" fill="black"/>
<path d="M29.1338 46.001C30.3176 46.0248 31.0873 46.9808 31.2686 48.2412C31.5768 50.3861 31.9249 52.4312 32.5273 54.5381C34.0689 59.9317 34.7542 62.6588 40.5791 64.4805C45.0906 65.893 47.6061 64.8497 47.9287 67.8242C47.997 68.4497 48.0959 69.2159 47.7734 69.7344C47.5309 70.1266 46.7383 70.5589 46.1807 70.6328C41.323 71.2583 36.1499 72.2602 34.2012 76.8809C32.7115 80.4146 31.8523 84.0742 31.2568 87.8838C31.1062 88.8562 30.4944 89.6529 29.7744 89.8838C28.8048 90.1929 27.5476 89.9148 27.3193 88.8066L26.5264 84.957L26.5312 84.9541L24.2363 77.418C23.8904 76.2813 23.09 74.7857 22.1533 74.1055C19.8658 72.4408 17.317 71.601 14.6553 70.7188L11.0566 70.0527C9.59519 69.7816 8.50779 68.2362 9.23242 66.7832C10.0114 65.2232 12.9085 65.8266 15.9492 64.6162L20 63.002C21.8498 62.2647 23.2197 60.9564 23.8857 59.0254L25.7686 53.5654C27.263 49.2278 26.5097 45.9511 29.1338 46.001ZM28.2461 57.4961C27.7989 58.9016 27.2836 60.2358 26.5752 61.5176C25.5656 63.6127 23.9564 65.1496 21.8359 66.0557L17.4648 67.9219L22.0635 69.8408C24.4476 70.8373 26.1688 72.6259 27.0938 75.0469L28.2344 78.0342H28.2324L29.1104 80.7783C29.7717 78.5096 30.5178 76.4072 31.5557 74.2051C33.3678 70.8781 36.4556 69.3422 39.96 68.127C37.7288 67.2613 35.7255 66.4118 33.9463 65.0039L32.085 63.0869C30.6589 60.5853 29.7835 58.0476 28.9951 55.1465L28.2461 57.4961Z" stroke="black"/>
</g>
<defs>
<clipPath id="clip0_181_80">
<rect width="39" height="44" fill="white" transform="translate(9 46)"/>
</clipPath>
</defs>
</svg>
