<svg preserveAspectRatio="none" width="100%" height="100%" overflow="visible" style="display: block;" viewBox="0 0 477.352 351.562" fill="none" xmlns="http://www.w3.org/2000/svg">
<g id="Group">
<path id="Vector" d="M191.346 207.493C191.346 207.493 272.813 187.404 273.057 187.995C273.301 188.587 291.841 214.776 284.909 242.069L195.423 266.312L191.346 207.508V207.493Z" fill="var(--fill-0, #8CA64B)"/>
<path id="Vector_2" d="M175.556 32.2026C179.564 34.2607 179.44 39.6613 179.734 43.9167C180.337 66.7105 181.266 112.963 180.276 133.994C179.811 141.42 183.649 143.881 189.142 147.935C193.63 151.278 198.659 155.193 202.512 159.448C215.681 173.685 215.866 194.529 215.154 212.804C214.32 226.174 213.808 240.642 210.822 253.393C209.027 261.1 205.839 265.603 200.144 270.168C178.961 286.587 115.283 345.111 78.0207 351.454C71.3976 352.167 65.3782 349.258 60.2561 345.295C49.0681 337.45 38.5919 321.033 34.5376 307.059C14.5138 246.91 9.65487 198.227 36.3173 139.285C41.6404 126.333 48.8669 116.538 57.1922 105.041C66.8946 90.9284 78.8099 75.5773 92.1644 65.2714C109.48 51.6385 129.488 41.2861 151.06 35.282C159.277 33.3786 168.406 29.9898 175.447 32.1407L175.571 32.2026H175.556Z" fill="var(--fill-0, #E09C2D)"/>
<path id="Vector_3" d="M89.3637 325.644C91.4373 336.29 79.9089 330.564 75.1891 325.35C69.7267 319.979 65.7034 313.713 62.005 307.492C47.9079 282.145 40.8205 252.837 38.9636 224.859C38.6851 208.982 41.9347 192.564 44.782 176.718C46.314 169.723 47.2579 159.99 49.904 153.723C50.1052 153.568 50.2444 153.785 50.3527 154.357C50.5539 155.75 50.5229 157.112 50.5075 158.783C49.9969 176.083 48.6661 193.817 49.2696 210.993C49.672 226.654 53.4631 241.741 57.765 256.891C60.9837 268.342 64.094 279.793 69.51 290.965C74.7094 302.787 85.3249 313.372 89.3018 325.395L89.3637 325.659V325.644Z" fill="var(--fill-0, #7A5300)"/>
<path id="Vector_4" d="M157.544 143.077C149.916 138.357 144.499 124.802 145.398 115.177C145.908 107.734 148.786 96.7163 157.884 99.8573C170.884 104.639 171.1 118.164 167.17 130.543C165.545 135.278 162.976 145.321 157.684 143.139L157.529 143.061L157.544 143.077Z" fill="var(--fill-0, #7A5300)"/>
<path id="Vector_5" d="M189.684 163.008C194.187 167 200.408 166.892 204.4 162.389L188.091 147.92C184.098 152.423 185.182 159.015 189.684 163.008Z" fill="var(--fill-0, #7A5300)"/>
<path id="Vector_6" d="M213.174 206.166C214.52 197.794 214.598 191.791 214.118 187.488C213.128 178.761 209.754 177.121 209.754 177.121C176.5 173.701 197.112 205.33 197.112 205.33L213.174 206.166Z" fill="var(--fill-0, #7A5300)"/>
<path id="Vector_7" d="M190.257 148.786L194.342 151.943L199.387 156.307L204.014 161.181L204.726 162.094L204.4 162.388L188.091 147.92L188.678 147.61" fill="var(--fill-0, #7A5300)"/>
<path id="Vector_8" d="M457.687 129.552C430.993 72.7762 372.129 13.633 301.52 21.525C294.231 23.0725 287.593 26.0126 281.713 30.1288C280.768 31.9083 280.011 34.0438 279.345 36.6744C276.08 47.8314 273.99 59.4218 272.413 71.043C270.431 88.9475 268.234 106.881 270.942 124.522C273.17 138.929 282.456 151.711 285.875 165.824C287.5 172.616 287.423 179.41 286.664 187.859C285.488 204.293 282.719 223.543 285.519 240.163C288.35 255.869 306.054 261.595 319.206 267.8C334.774 275.352 353.08 282.207 369.081 287.097C389.538 293.023 408.757 300.606 430.437 303.593C451.575 306.625 470.732 292.513 475.715 273.959C479.614 242.901 477.634 172.353 457.702 129.537L457.687 129.552Z" fill="var(--fill-0, #E09C2D)"/>
<path id="Vector_9" d="M303.532 22.8724C302.68 22.2689 301.721 21.913 300.7 21.6963C292.637 23.5377 285.411 27.1123 279.128 32.0951C278.881 32.6058 278.664 33.0855 279.051 32.1571C279.035 32.1571 279.021 32.188 279.005 32.2034C278.649 32.9772 278.262 33.6735 277.782 34.2924C277.349 36.0565 276.946 38.0528 276.483 40.312C275.198 46.9195 273.959 54.9198 272.954 62.1928C270.633 79.3384 268.776 96.6383 267.863 113.939C266.269 130.636 277.225 141.824 281.31 156.803C283.601 164.138 283.569 171.427 283.523 179.055C283.461 189.594 283.616 205.517 283.786 219.025C283.895 225.68 283.925 231.792 284.111 236.11C284.344 241.463 284.915 243.862 285.984 242.718C288.305 239.267 289.697 232.675 290.951 227.939C295.98 204.588 300.374 177.942 300.53 158.056C299.137 147.441 289.341 139.503 287.144 128.84C285.705 123.239 286.37 117.591 287.469 112.02C288.985 104.236 290.517 96.8095 292.42 87.4156C295.314 73.1952 298.441 57.9838 301.38 43.8092C302.232 39.693 303.036 35.8709 303.872 31.8784C304.754 27.592 305.713 24.621 303.546 22.8724H303.532Z" fill="var(--fill-0, #7A5300)"/>
<path id="Vector_10" d="M289.388 138.975C290.626 136.097 294.015 134.952 296.97 133.915C299.277 133.11 301.536 132.167 303.732 131.098C306.936 129.552 310.403 127.137 310.557 123.563C310.634 121.721 309.768 119.972 308.932 118.333C306.735 114.03 304.367 109.543 300.328 106.897C299.044 106.045 297.481 105.256 297.095 103.756C296.893 102.967 297.079 102.147 297.265 101.357L301.287 84.0573C301.287 84.0573 334.264 95.3378 332.685 131.254C332.685 131.254 305.436 147.533 300.546 179.209C299.988 182.783 301.783 172.09 302.418 168.532C302.928 165.653 303.424 162.775 303.748 159.865C303.934 158.163 304.058 156.415 303.501 154.805C303.083 153.645 302.34 152.639 301.566 151.664C297.899 147.022 293.689 142.813 289.048 139.161" fill="var(--fill-0, #7A5300)"/>
<path id="Vector_11" d="M315.214 20.4265C314.72 20.3646 314.24 20.2717 313.807 20.117C313.497 20.1634 313.188 20.2253 312.848 20.2253C305.574 20.3492 298.796 21.7419 292.592 24.2177C290.641 27.0341 289.558 31.1658 288.058 37.2162C286.447 43.8702 284.792 51.9478 283.415 59.2828C280.211 76.614 277.488 94.1152 275.677 111.663C273.233 128.562 283.508 140.493 286.789 155.936C288.676 163.502 288.273 170.93 287.825 178.683C287.222 189.407 286.54 205.609 286.014 219.35C285.767 226.128 285.488 232.348 285.457 236.744C285.411 242.19 285.86 244.666 286.974 243.551C289.465 240.163 291.167 233.524 292.669 228.774C298.858 205.283 304.615 178.389 305.791 158.179C304.955 147.316 295.655 138.759 294.031 127.788C292.9 122.016 293.845 116.321 295.221 110.688C297.14 102.843 299.028 95.3684 301.412 85.9141C305.017 71.6004 308.901 56.2806 312.569 42.0133C313.636 37.8816 317.861 22.7167 315.803 20.8289C315.617 20.6741 315.416 20.5504 315.214 20.4265Z" fill="var(--fill-0, #582400)"/>
<path id="Vector_12" d="M0.679869 262.755C-0.279543 262.941 -0.0164779 263.823 0.231113 264.55C6.26612 279.576 19.3419 312.923 20.3169 323.554C20.549 325.999 20.9204 327.964 23.9997 327.826C30.1586 327.903 46.2055 322.239 55.7997 317.194C60.2098 315.043 63.2274 311.933 67.4674 310.541C69.1231 309.952 70.9645 309.488 72.6667 309.055C73.4714 308.776 74.5856 308.59 75.3902 308.204C75.9783 307.926 76.3961 307.523 76.4425 306.904C75.9318 305.078 74.4618 303.391 72.7596 300.142C66.1984 288.567 55.8461 268.419 56.3877 257.618C56.2484 256.024 57.1614 253.796 56.4496 252.651C56.1401 252.434 55.4747 252.558 54.4379 252.851C50.3681 254.059 45.5247 255.389 40.6812 256.643C28.6575 259.83 12.5332 263.25 0.803665 262.724H0.695344L0.679869 262.755Z" fill="var(--fill-0, #8CA64B)"/>
<path id="Vector_13" d="M74.5546 308.528C75.6224 308.234 78.9184 306.671 78.9184 306.671C78.9184 306.671 66.3687 286.215 65.8735 282.594L61.8657 271.049L57.4864 255.9L56.5115 252.402L55.6913 252.573L59.4516 304.953L74.5546 308.528Z" fill="var(--fill-0, #8CA64B)"/>
<path id="Vector_14" d="M63.9857 286.338C66.9723 286.338 66.9723 281.696 63.9857 281.696C60.9991 281.696 60.9991 286.338 63.9857 286.338Z" fill="var(--fill-0, #8CA64B)"/>
<path id="Vector_15" d="M64.0479 286.679C67.0345 286.679 67.0345 282.037 64.0479 282.037C61.0614 282.037 61.0614 286.679 64.0479 286.679Z" fill="var(--fill-0, #8CA64B)"/>
<path id="Vector_16" d="M66.6163 287.376L65.8736 282.595L67.8698 287.376H66.6163Z" fill="var(--fill-0, #8CA64B)"/>
<path id="Vector_17" d="M234.526 0.455228L230.705 15.713C230.039 17.276 227.997 20.4017 229.652 20.0458L249.522 13.2525C251.177 12.8967 254.705 10.5755 253.452 9.4304L242.744 2.00268C241.691 1.04326 235.083 -0.86003 234.512 0.439786L234.526 0.455228Z" fill="var(--fill-0, #E09C2D)"/>
</g>
</svg>
